# xmcd
#
# Track frame offsets:
#	150
#	15037
#	30987
#	44787
#	60587
#	75542
#	92195
#	111420
#	125687
#	138912
#	151207
#	164742
#
# Disc length: 2417 seconds
#
# Revision: 0
# Processed by: cddbd v1.5.2PL0 Copyright (c) Steve Scherf et al.
# Submitted via: dBpowerAMP V4.0
#
DISCID=96096f0c
DTITLE=Various Artist - #1 Super Country 80s Hits
DYEAR=2006
DGENRE=Country
TTITLE0=George Jones - He Stopped Loving Her Today
TTITLE1=Willie Nelson - Always On My Mind
TTITLE2=Merle Haggard - That's The Way Love Goes
TTITLE3=The Judds - Why Not Me
TTITLE4=Alabama - Love In The First Degree
TTITLE5=Keith Whitley - When You Say Nothing At All
TTITLE6=Ronnie Milsap - Lost in The Fifties Tonight (In The Still Of The Night)
TTITLE7=Earl Thomas Conley - Holding Her And Loving You
TTITLE8=Mickey Gilley - True Love Ways
TTITLE9=Dolly Parton - 9 To 5
TTITLE10=Shenandoah - The Church On Cumberland Road
TTITLE11=Janie Fricke - Always Have, Always Will
EXTD=
EXTT0=
EXTT1=
EXTT2=
EXTT3=
EXTT4=
EXTT5=
EXTT6=
EXTT7=
EXTT8=
EXTT9=
EXTT10=
EXTT11=
PLAYORDER=
